<?xml version="1.0" encoding="utf-8"?>
<!-- Generator: Adobe Illustrator 22.0.0, SVG Export Plug-In . SVG Version: 6.00 Build 0)  -->
<svg version="1.1" id="Layer_1" xmlns="http://www.w3.org/2000/svg" xmlns:xlink="http://www.w3.org/1999/xlink" x="0px" y="0px"
	 viewBox="0 0 406 124.6" style="enable-background:new 0 0 406 124.6;" xml:space="preserve">
<style type="text/css">
	.st0{fill:#DD8882;}
	.st1{fill:#212121;}
</style>
<path class="st0" d="M251.3,63.4c0-8.9-4.4-16.7-11.1-21.5c-4.3-3.1-9.7-4.9-15.4-4.9c-3.1,0-6,0.5-8.7,1.5
	c-0.5,0.2-0.9,0.3-1.4,0.5c-1.4,0.6-2.7,1.3-4,2.1c1.1-1.7,1.9-3.5,2.6-5.4l0,0c0.9-2.7,1.5-5.6,1.5-8.7c0-5.8-1.8-11.1-5-15.4
	c-4.8-6.7-12.6-11-21.5-11c0,0,0,0,0,0c-8.9,0-16.7,4.4-21.5,11.1c-3.1,4.3-4.9,9.7-4.9,15.4c0,3.1,0.5,6,1.5,8.7
	c0.7,1.9,1.5,3.7,2.6,5.4c-1.7-1.1-3.5-1.9-5.4-2.6l0,0c-2.7-0.9-5.6-1.5-8.7-1.5c-5.8,0-11.1,1.8-15.4,5c0.2,1.3,0.5,2.6,0.9,3.9
	s0.9,2.5,1.5,3.7c-0.6-1.2-1.1-2.5-1.5-3.7s-0.7-2.6-0.9-3.9c-6.7,4.8-11,12.6-11,21.5c0,8.9,4.4,16.7,11.1,21.5
	c4.3,3.1,9.7,4.9,15.4,4.9c3.1,0,6-0.5,8.7-1.5h0c1.4-0.5,2.8-1.1,4.1-1.8c0.4-0.2,0.9-0.5,1.3-0.8c-0.5,0.8-1,1.7-1.4,2.6
	c-0.4,0.9-0.8,1.8-1.1,2.8l0,0c-0.9,2.7-1.5,5.6-1.5,8.7c0,5.8,1.8,11.1,5,15.4c4.8,6.7,12.6,11,21.5,11c8.9,0,16.7-4.4,21.5-11.1
	c3.1-4.3,4.9-9.7,4.9-15.4c0-3.1-0.5-6-1.5-8.7c-0.7-1.9-1.5-3.7-2.6-5.4c1.7,1.1,3.5,1.9,5.4,2.6c2.7,0.9,5.6,1.5,8.7,1.5
	c5.8,0,11.1-1.8,15.4-5C246.9,80.1,251.3,72.3,251.3,63.4z M241.6,46.1c4.6,4.5,7.3,10.8,7.3,17.3c0,6.5-2.7,12.8-7.3,17.3
	c-1.4-4.4-3.8-8.5-7.1-11.8c-2.2-2.2-4.7-4-7.5-5.4l0,0l-0.1-0.1l0.1-0.1l0,0c2.7-1.4,5.2-3.2,7.4-5.4
	C237.8,54.6,240.3,50.6,241.6,46.1z M220.5,77.5c0,0.1-0.1,0.2-0.1,0.3l0,0l0,0l0,0l0,0.1l0,0c0,0.1-0.1,0.1-0.1,0.2l0,0.1
	c0,0.1-0.1,0.1-0.1,0.2l0,0l0,0c0,0.1-0.1,0.2-0.1,0.3c-0.1,0.2-0.2,0.3-0.3,0.5c-0.1,0.1-0.1,0.3-0.2,0.4c-0.1,0.1-0.1,0.2-0.2,0.4
	c-0.1,0.1-0.1,0.2-0.2,0.3l-0.2,0.3c0,0.1-0.1,0.2-0.1,0.3c-0.2,0.3-0.4,0.7-0.6,1c-0.2,0.3-0.4,0.7-0.6,1l-0.1,0.1l-0.1,0.1
	c-0.1,0.1-0.1,0.2-0.2,0.3c0,0.1-0.1,0.1-0.1,0.2l-0.1,0.1l-0.1,0.2c-0.1,0.1-0.2,0.2-0.3,0.4l0,0c0,0-0.1,0.1-0.1,0.1l-0.1,0.1
	l-0.1,0.1c-0.1,0.2-0.3,0.3-0.4,0.5c-0.1,0.2-0.3,0.4-0.4,0.5c-0.1,0-0.1-0.1-0.2-0.1c-0.4-0.2-0.9-0.4-1.3-0.6
	c-0.1-0.1-0.3-0.1-0.4-0.2c-0.5-0.3-1-0.6-1.5-0.9c-1.2-0.8-2.4-1.7-3.5-2.7c0.4,0,0.8,0,1.2,0c0.5,0,1,0,1.5-0.1
	c0.2,0,0.3,0,0.5-0.1c0.3,0,0.7-0.1,1-0.1c0.2,0,0.4-0.1,0.6-0.1c0.3-0.1,0.6-0.1,0.8-0.2c0.2-0.1,0.4-0.1,0.6-0.2
	c0.3-0.1,0.5-0.1,0.8-0.2c0.2-0.1,0.4-0.2,0.6-0.2c0.2-0.1,0.5-0.2,0.7-0.3c0.2-0.1,0.4-0.2,0.6-0.3c0.2-0.1,0.5-0.2,0.7-0.3
	c0.2-0.1,0.4-0.2,0.6-0.3c0.2-0.1,0.4-0.2,0.6-0.4c0.2-0.1,0.4-0.3,0.6-0.4C220,77.9,220.2,77.7,220.5,77.5
	C220.4,77.6,220.4,77.6,220.5,77.5z M209.6,78.9c-1.8,0-3.5-0.3-5.1-0.8c-0.4-0.2-0.9-0.3-1.3-0.5c-0.4-0.2-0.8-0.4-1.2-0.6l0,0
	c-1.6-2.8-2.8-5.9-3.3-9.1c2.9-2.1,6.2-3.5,9.5-4.3c-3.4-0.8-6.6-2.2-9.6-4.3c0.5-3.3,1.7-6.4,3.3-9.2c-0.2,0.1-0.4,0.2-0.6,0.4
	c0.2-0.1,0.4-0.3,0.6-0.4l0,0c0.8-0.5,1.6-0.8,2.5-1.1c1.6-0.6,3.3-0.9,5.1-0.9c8,0,14.5,6,15.4,13.8c-1.6,0.7-3.3,1.3-5,1.7
	c1.7,0.4,3.4,0.9,5,1.7C224.2,72.8,217.6,78.9,209.6,78.9z M209.7,88.6c0.1,0.1,0.1,0.3,0.2,0.4c0.2,0.4,0.4,0.9,0.6,1.3
	c0,0.1,0.1,0.1,0.1,0.2c-0.1,0.1-0.2,0.2-0.3,0.2c-2,1.6-4.1,2.9-6.3,4.1c-0.1,0.1-0.2,0.1-0.3,0.2l-0.1,0l-0.1,0.1
	c-0.1,0.1-0.3,0.1-0.5,0.2c-0.1,0.1-0.2,0.1-0.4,0.2l-0.1,0c0,0,0,0,0-0.1c0.2-0.2,0.3-0.4,0.4-0.6c0.1-0.2,0.2-0.3,0.4-0.5
	c0.1-0.2,0.3-0.5,0.4-0.7c0.1-0.2,0.2-0.3,0.3-0.5c0.1-0.2,0.2-0.5,0.4-0.7c0.1-0.2,0.2-0.4,0.3-0.5c0.1-0.3,0.2-0.5,0.3-0.8
	c0.1-0.2,0.1-0.4,0.2-0.6c0.1-0.3,0.2-0.5,0.2-0.8c0.1-0.2,0.1-0.4,0.2-0.6c0.1-0.3,0.1-0.6,0.2-0.9c0-0.2,0.1-0.4,0.1-0.5
	c0.1-0.3,0.1-0.7,0.1-1c0-0.2,0-0.3,0.1-0.5c0-0.5,0.1-1,0.1-1.5c0-0.4,0-0.8,0-1.2c1,1.1,1.9,2.3,2.7,3.5
	C209.1,87.5,209.4,88.1,209.7,88.6z M190,100.1c-0.7-1.6-1.3-3.3-1.7-5c-0.4,1.7-0.9,3.4-1.7,5c-7.8-0.8-13.8-7.4-13.8-15.4
	c0-0.4,0-0.9,0.1-1.3c0.1-1.3,0.4-2.6,0.8-3.7c0.3-0.9,0.7-1.7,1.1-2.5c2.8-1.6,5.9-2.8,9.1-3.3c2.1,2.9,3.5,6.2,4.3,9.5
	c0.8-3.4,2.2-6.6,4.3-9.6c3.3,0.5,6.4,1.7,9.1,3.3c0.5,0.8,0.8,1.6,1.1,2.5c0.6,1.6,0.9,3.3,0.9,5.1
	C203.8,92.7,197.8,99.3,190,100.1z M174.2,95.5c-0.1,0-0.1,0-0.2-0.1c-0.1,0-0.2-0.1-0.3-0.1l-0.1,0l0,0l-0.1,0
	c-0.1,0-0.2-0.1-0.3-0.1c-0.2-0.1-0.4-0.2-0.6-0.3c-0.3-0.1-0.5-0.3-0.8-0.4c-0.2-0.1-0.4-0.2-0.5-0.3c-0.2-0.1-0.5-0.3-0.7-0.4
	c-0.1-0.1-0.2-0.1-0.3-0.2l-0.2-0.2l-0.3-0.1c0,0,0,0,0,0l-0.1,0c-0.1-0.1-0.3-0.2-0.4-0.2c-0.3-0.2-0.5-0.3-0.8-0.5
	c-0.1-0.1-0.3-0.2-0.4-0.3c-0.2-0.1-0.4-0.3-0.6-0.4c-0.1-0.1-0.2-0.2-0.3-0.2l-0.1-0.1c-0.1-0.1-0.2-0.1-0.2-0.2l-0.1-0.1l-0.1-0.1
	c-0.2-0.2-0.4-0.3-0.6-0.5c-0.1,0-0.1-0.1-0.2-0.1c0-0.1,0.1-0.1,0.1-0.2c0.2-0.4,0.4-0.9,0.6-1.3c0.1-0.1,0.1-0.3,0.2-0.4
	c0.3-0.5,0.6-1,0.9-1.5c0,0,0,0,0,0l0,0c0.8-1.2,1.7-2.4,2.7-3.5c0,0.4,0,0.8,0,1.2c0,0.5,0,1,0.1,1.5c0,0.2,0,0.3,0.1,0.5
	c0,0.3,0.1,0.7,0.1,1c0,0.2,0.1,0.4,0.1,0.6c0.1,0.3,0.1,0.6,0.2,0.9c0,0.2,0.1,0.4,0.2,0.6c0.1,0.3,0.1,0.5,0.2,0.8
	c0.1,0.2,0.1,0.4,0.2,0.6c0.1,0.3,0.2,0.5,0.3,0.7c0.1,0.2,0.2,0.4,0.3,0.6c0.1,0.2,0.2,0.5,0.3,0.7c0.1,0.2,0.2,0.4,0.3,0.6
	c0.1,0.2,0.3,0.4,0.4,0.7c0.1,0.2,0.3,0.4,0.4,0.5C173.9,95.1,174,95.3,174.2,95.5C174.2,95.5,174.2,95.5,174.2,95.5z M162.7,85
	c-0.2,0.1-0.4,0.2-0.6,0.3c-0.3,0.1-0.5,0.2-0.8,0.3c-1.1-1.4-2.1-2.8-3-4.3c-0.1-0.2-0.2-0.3-0.3-0.5c-0.1-0.1-0.2-0.3-0.2-0.4
	c-0.2-0.3-0.3-0.6-0.5-1l0-0.1l0,0c-0.1-0.2-0.2-0.3-0.2-0.5l-0.1-0.3l-0.1-0.2l-0.1-0.1c0,0,0,0,0-0.1c-0.1-0.2-0.2-0.4-0.3-0.6
	l0-0.1c0,0,0,0,0.1,0c0.2,0.1,0.4,0.3,0.6,0.4c0.2,0.1,0.4,0.3,0.5,0.4c0.2,0.1,0.4,0.3,0.6,0.4c0.2,0.1,0.4,0.2,0.6,0.3
	c0.2,0.1,0.5,0.2,0.7,0.3c0.2,0.1,0.4,0.2,0.6,0.3c0.2,0.1,0.5,0.2,0.7,0.3c0.2,0.1,0.4,0.2,0.6,0.2c0.3,0.1,0.5,0.2,0.8,0.2
	c0.2,0.1,0.4,0.1,0.6,0.2c0.3,0.1,0.6,0.1,0.8,0.2c0.2,0,0.4,0.1,0.6,0.1c0.3,0.1,0.6,0.1,1,0.1c0.2,0,0.3,0,0.5,0.1
	c0.5,0,1,0.1,1.5,0.1c0,0,0,0,0,0l0,0l0,0c0.4,0,0.8,0,1.2,0c-1.1,1-2.3,1.9-3.5,2.7C164.1,84.3,163.4,84.7,162.7,85z M151.7,61.8
	c0.8-7.8,7.4-13.8,15.4-13.8c1.8,0,3.5,0.3,5.1,0.8c0.9,0.3,1.7,0.7,2.5,1.1c1.6,2.8,2.8,5.9,3.3,9.1l0,0c-2.9,2.1-6.2,3.5-9.5,4.3
	c3.4,0.8,6.6,2.2,9.6,4.3c-0.5,3.3-1.7,6.4-3.3,9.2l0,0c-0.8,0.5-1.6,0.8-2.5,1.1c-0.8,0.3-1.6,0.5-2.5,0.6
	c-0.8,0.1-1.7,0.2-2.6,0.2c0,0,0,0,0,0c-8,0-14.5-6-15.4-13.8c1.6-0.7,3.3-1.3,5-1.7C155,63.1,153.3,62.5,151.7,61.8z M156.2,49.3
	l0.1-0.1c0.1-0.1,0.1-0.2,0.2-0.4l0-0.1c0-0.1,0.1-0.2,0.1-0.3c0.1-0.2,0.2-0.4,0.3-0.6c0.1-0.2,0.2-0.4,0.3-0.6
	c0.1-0.2,0.2-0.4,0.3-0.5c0.1-0.2,0.2-0.3,0.2-0.4c0.1-0.2,0.2-0.3,0.3-0.5l0-0.1c0.1-0.1,0.1-0.2,0.2-0.3c0.1-0.2,0.3-0.5,0.4-0.7
	c0.7-1.1,1.4-2.1,2.2-3.1c0,0,0,0,0.1-0.1c0.1-0.1,0.2-0.3,0.3-0.4c0.1,0,0.1,0.1,0.2,0.1c0.4,0.2,0.9,0.4,1.3,0.6
	c0.1,0.1,0.3,0.1,0.4,0.2c0.5,0.3,1,0.6,1.5,0.9l0,0c1.2,0.8,2.4,1.7,3.5,2.7c-0.4,0-0.8,0-1.2,0c-0.5,0-1,0-1.5,0.1
	c-0.2,0-0.3,0-0.5,0.1c-0.3,0-0.6,0.1-1,0.1c-0.2,0-0.4,0.1-0.6,0.1c-0.3,0.1-0.6,0.1-0.8,0.2c-0.2,0.1-0.4,0.1-0.6,0.2
	c-0.3,0.1-0.5,0.1-0.8,0.2c-0.2,0.1-0.4,0.2-0.6,0.2c-0.2,0.1-0.5,0.2-0.7,0.3c-0.2,0.1-0.4,0.2-0.6,0.3c-0.2,0.1-0.5,0.2-0.7,0.3
	c-0.2,0.1-0.4,0.2-0.6,0.3c-0.2,0.1-0.4,0.2-0.7,0.4c-0.2,0.1-0.4,0.2-0.5,0.4C156.7,49,156.5,49.1,156.2,49.3
	C156.3,49.3,156.3,49.3,156.2,49.3z M186.7,26.8c0.7,1.6,1.3,3.3,1.7,5c0.4-1.7,0.9-3.4,1.7-5c2.4,0.3,4.7,1.1,6.6,2.3
	c4.3,2.7,7.2,7.6,7.2,13c0,1.8-0.3,3.5-0.8,5.1c-0.3,0.9-0.7,1.7-1.1,2.5c-2.8,1.6-5.9,2.8-9.1,3.3c-2.1-2.9-3.5-6.2-4.3-9.5
	c-0.8,3.4-2.2,6.6-4.3,9.6c-3.3-0.5-6.4-1.7-9.1-3.3c-0.5-0.8-0.8-1.6-1.1-2.5c-0.6-1.6-0.9-3.3-0.9-5.1
	C172.9,34.2,178.9,27.6,186.7,26.8z M202.5,31.3l0.1,0.1l0,0l0,0c0.1,0,0.1,0,0.2,0.1l0.1,0l0.1,0c0,0,0.1,0,0.1,0l0,0l0,0l0.1,0
	c0.1,0,0.1,0.1,0.2,0.1l0,0l0,0c0.1,0,0.1,0.1,0.2,0.1l0.1,0.1c0.1,0,0.2,0.1,0.3,0.1c0.2,0.1,0.3,0.2,0.5,0.2c0,0,0.1,0,0.1,0
	c0.2,0.1,0.3,0.2,0.5,0.3c0.2,0.1,0.3,0.2,0.5,0.3c0.2,0.1,0.3,0.2,0.5,0.3c0.1,0,0.1,0.1,0.2,0.1l0,0c0.2,0.1,0.3,0.2,0.4,0.3
	c0.1,0.1,0.3,0.2,0.4,0.2c0.1,0.1,0.2,0.1,0.3,0.2c0.1,0.1,0.3,0.2,0.4,0.2c0.1,0.1,0.2,0.1,0.3,0.2c0.3,0.2,0.5,0.4,0.8,0.6
	c0.2,0.1,0.3,0.2,0.5,0.3l0.2,0.2l0.1,0.1c0.1,0.1,0.2,0.2,0.3,0.3c0.1,0.1,0.2,0.1,0.3,0.2c0.1,0.1,0.3,0.2,0.4,0.3
	c0,0.1-0.1,0.1-0.1,0.2c-0.2,0.4-0.4,0.9-0.6,1.3c-0.1,0.1-0.1,0.3-0.2,0.4c-0.3,0.5-0.6,1-0.9,1.5l-0.1,0.2
	c-0.8,1.2-1.6,2.3-2.6,3.4c0-0.4,0-0.8,0-1.2c0-0.5,0-1-0.1-1.5c0-0.2,0-0.3-0.1-0.5c0-0.3-0.1-0.6-0.1-0.9c0-0.2-0.1-0.4-0.1-0.6
	c-0.1-0.3-0.1-0.6-0.2-0.8c-0.1-0.2-0.1-0.4-0.2-0.6c-0.1-0.3-0.1-0.5-0.2-0.8c-0.1-0.2-0.2-0.4-0.2-0.6c-0.1-0.2-0.2-0.5-0.3-0.7
	c-0.1-0.2-0.2-0.4-0.3-0.6c-0.1-0.2-0.2-0.5-0.3-0.7c-0.1-0.2-0.2-0.4-0.3-0.6c-0.1-0.2-0.2-0.4-0.4-0.7c-0.1-0.2-0.2-0.4-0.4-0.5
	C202.8,31.8,202.7,31.6,202.5,31.3C202.5,31.4,202.5,31.4,202.5,31.3z M212.5,42.7c0.5-0.3,1.1-0.6,1.7-0.9c0.2-0.1,0.4-0.2,0.7-0.3
	c0.2-0.1,0.4-0.2,0.6-0.3c0,0.1,0.1,0.1,0.1,0.2l0.1,0.1l0.1,0.1c0.1,0.2,0.3,0.4,0.4,0.5c0.1,0.1,0.2,0.3,0.3,0.4
	c0.1,0.2,0.2,0.3,0.4,0.5c0.3,0.4,0.6,0.8,0.9,1.3l0,0c0,0,0.1,0.1,0.1,0.1l0.1,0.2l0.1,0.1c0.1,0.2,0.3,0.4,0.4,0.6
	c0.1,0.2,0.2,0.3,0.3,0.5c0.1,0.1,0.1,0.2,0.2,0.4c0.1,0.2,0.2,0.3,0.3,0.5c0.1,0.1,0.1,0.2,0.2,0.3l0,0l0,0l0,0l0,0
	c0.1,0.1,0.1,0.2,0.2,0.3c0.1,0.1,0.1,0.2,0.2,0.3l0.1,0.1c0,0.1,0.1,0.2,0.1,0.2c0.1,0.2,0.2,0.4,0.3,0.7l0,0l0,0
	c0,0.1,0.1,0.2,0.1,0.3c0,0.1,0.1,0.2,0.1,0.3c0,0,0,0-0.1,0c-0.2-0.2-0.4-0.3-0.6-0.4c-0.2-0.1-0.3-0.2-0.5-0.4
	c-0.2-0.1-0.4-0.3-0.7-0.4c-0.2-0.1-0.4-0.2-0.5-0.3c-0.2-0.1-0.5-0.2-0.7-0.3c-0.2-0.1-0.4-0.2-0.6-0.3c-0.2-0.1-0.5-0.2-0.7-0.3
	c-0.2-0.1-0.4-0.2-0.6-0.2c-0.3-0.1-0.5-0.2-0.8-0.2c-0.2-0.1-0.4-0.1-0.6-0.2c-0.3-0.1-0.6-0.1-0.8-0.2c-0.2,0-0.4-0.1-0.6-0.1
	c-0.3-0.1-0.6-0.1-0.9-0.1c-0.2,0-0.3,0-0.5-0.1c-0.4,0-0.9-0.1-1.4-0.1c0,0-0.1,0-0.1,0c0,0,0,0,0,0c-0.4,0-0.8,0-1.2,0
	c1.1-1,2.3-1.9,3.5-2.7l0,0C212.2,42.9,212.3,42.8,212.5,42.7z M196.4,68.1c0.2,1,0.4,2,0.6,2.9l-3-1.9l1.9,3.1
	c-1-0.3-1.9-0.5-2.9-0.6l-1.4-0.2l-0.8,1.2c-0.9,1.3-1.7,2.6-2.4,4c-0.7-1.4-1.5-2.7-2.4-4l-0.8-1.2l-1.4,0.2c-1,0.2-2,0.4-2.9,0.6
	l1.9-3l-3.1,1.9c0.3-1,0.5-1.9,0.6-2.9l0.2-1.4l-1.2-0.8c-1.3-0.9-2.6-1.7-4-2.4c1.4-0.7,2.7-1.5,4-2.4l0.1-0.1l0.1-0.1l0.9-0.8
	l-0.2-1.2c-0.2-1-0.4-2-0.6-2.9l3,1.9l-1.9-3c1,0.3,1.9,0.5,2.9,0.6l1.4,0.2l0.8-1.2c0.9-1.3,1.7-2.6,2.4-4c0.7,1.4,1.5,2.7,2.4,4
	l0.8,1.2l1.4-0.2c1-0.2,2-0.4,2.9-0.6l-1.9,3l3-1.9c-0.3,1-0.5,1.9-0.6,2.9l-0.2,1.4l1.2,0.8c1.3,0.9,2.6,1.7,4,2.4
	c-1.4,0.7-2.7,1.5-4,2.4l-1.2,0.8L196.4,68.1z M174.1,31.4c-0.1,0.2-0.3,0.4-0.4,0.6c-0.1,0.2-0.3,0.4-0.4,0.5
	c-0.1,0.2-0.3,0.4-0.4,0.6c-0.1,0.2-0.2,0.4-0.3,0.6c-0.1,0.2-0.2,0.5-0.3,0.7c-0.1,0.2-0.2,0.4-0.3,0.6c-0.1,0.2-0.2,0.5-0.3,0.7
	c-0.1,0.2-0.2,0.4-0.2,0.6c-0.1,0.3-0.2,0.5-0.2,0.8c-0.1,0.2-0.1,0.4-0.2,0.6c-0.1,0.3-0.1,0.6-0.2,0.9c0,0.2-0.1,0.4-0.1,0.6
	c-0.1,0.3-0.1,0.6-0.1,1c0,0.2,0,0.3-0.1,0.5c0,0.5-0.1,1-0.1,1.5c0,0.4,0,0.8,0,1.2c-1-1.1-1.9-2.3-2.7-3.5l0,0
	c-0.3-0.5-0.6-1-0.9-1.5c-0.1-0.1-0.1-0.3-0.2-0.4c-0.2-0.4-0.4-0.9-0.6-1.3c0-0.1-0.1-0.1-0.1-0.2c0.1-0.1,0.3-0.2,0.4-0.3l0.3-0.2
	l0,0c0.1-0.1,0.3-0.2,0.4-0.3c0.1-0.1,0.2-0.1,0.3-0.2l0.1-0.1c0.1-0.1,0.3-0.2,0.4-0.3c1.7-1.2,3.6-2.3,5.5-3.2
	c0.1-0.1,0.3-0.1,0.4-0.2C174,31.4,174.1,31.4,174.1,31.4C174.2,31.4,174.2,31.4,174.1,31.4z M237.7,43c-1,4.4-3.2,8.5-6.5,11.7
	c-1.4,1.4-2.9,2.6-4.5,3.6c-0.5-1.7-1.3-3.3-2.3-4.8c-0.2-0.7-0.4-1.4-0.6-2.1c-0.1-0.2-0.2-0.4-0.2-0.7c0-0.1-0.1-0.2-0.1-0.4
	c-0.1-0.2-0.2-0.5-0.3-0.7c0-0.1-0.1-0.2-0.1-0.4c-0.1-0.1-0.1-0.3-0.2-0.4c-0.1-0.3-0.2-0.6-0.4-0.9c0-0.1-0.1-0.2-0.1-0.3
	c-0.1-0.2-0.2-0.5-0.3-0.7c0-0.1-0.1-0.2-0.1-0.3c0,0,0-0.1-0.1-0.1c-0.1-0.1-0.1-0.2-0.2-0.3c-0.1-0.1-0.1-0.2-0.2-0.4c0,0,0,0,0,0
	c-0.1-0.1-0.1-0.2-0.2-0.3c-0.1-0.2-0.2-0.3-0.3-0.5c-0.1-0.1-0.1-0.3-0.2-0.4c-0.1-0.2-0.2-0.3-0.3-0.5c-0.2-0.3-0.4-0.6-0.5-0.9
	c0,0,0,0,0,0c-0.1-0.1-0.1-0.2-0.2-0.3c-0.3-0.5-0.6-0.9-0.9-1.4c-0.1-0.2-0.3-0.4-0.4-0.5c-0.1-0.1-0.2-0.3-0.3-0.4
	c-0.1-0.1-0.2-0.2-0.3-0.4c2.3-0.7,4.7-1.1,7.1-1.1C229.4,39.3,233.8,40.6,237.7,43z M212.4,27c0,2.4-0.4,4.8-1.1,7c0,0,0,0,0,0
	c-0.2-0.1-0.4-0.3-0.5-0.4c0,0,0,0,0,0c-0.2-0.2-0.4-0.3-0.6-0.5c-0.3-0.2-0.6-0.4-0.9-0.6c-0.1-0.1-0.2-0.1-0.3-0.2
	c-0.1-0.1-0.3-0.2-0.4-0.3c-0.1-0.1-0.2-0.1-0.3-0.2c-0.1-0.1-0.3-0.2-0.4-0.3c-0.2-0.1-0.3-0.2-0.5-0.3c-0.1-0.1-0.2-0.1-0.3-0.2
	c-0.2-0.1-0.3-0.2-0.5-0.3c-0.2-0.1-0.3-0.2-0.5-0.3c-0.2-0.1-0.4-0.2-0.5-0.3c0,0,0,0,0,0c-0.2-0.1-0.4-0.2-0.6-0.3
	c-0.1,0-0.2-0.1-0.3-0.1c-0.1-0.1-0.2-0.1-0.3-0.2c-0.1,0-0.2-0.1-0.3-0.1c-0.1,0-0.1-0.1-0.2-0.1c-0.1,0-0.2-0.1-0.3-0.1
	c-0.1,0-0.2-0.1-0.2-0.1c-0.1,0-0.2-0.1-0.3-0.1c0,0-0.1,0-0.1,0c-0.1,0-0.2-0.1-0.3-0.1c0,0,0,0,0,0c-0.1-0.1-0.3-0.1-0.4-0.2
	c-0.4-0.2-0.8-0.3-1.2-0.4c-0.1,0-0.2-0.1-0.3-0.1c-0.3-0.1-0.6-0.2-1-0.3c-0.1,0-0.2-0.1-0.3-0.1c-0.2-0.1-0.3-0.1-0.5-0.2
	c-0.2-0.1-0.4-0.1-0.6-0.2c-1.4-1-3-1.7-4.8-2.3c1-1.7,2.2-3.2,3.6-4.6c3.2-3.2,7.3-5.5,11.7-6.5C211.2,17.9,212.4,22.4,212.4,27z
	 M188.3,2.8L188.3,2.8c6.5,0,12.8,2.7,17.3,7.3c-4.4,1.4-8.5,3.8-11.8,7.1c-2.2,2.2-4.1,4.8-5.5,7.6c-1.4-2.8-3.2-5.3-5.4-7.6
	c-3.4-3.4-7.4-5.8-11.9-7.2C175.5,5.5,181.8,2.8,188.3,2.8z M167.9,14.1c4.4,1,8.5,3.2,11.7,6.5c1.4,1.4,2.6,2.9,3.6,4.5
	c-1.7,0.5-3.3,1.3-4.8,2.3c-0.2,0-0.3,0.1-0.5,0.1c0,0,0,0,0,0l0,0c-0.2,0.1-0.4,0.1-0.6,0.2c-0.1,0-0.2,0.1-0.3,0.1
	c-0.2,0.1-0.3,0.1-0.5,0.2c-0.2,0.1-0.5,0.2-0.7,0.3c-0.1,0-0.2,0.1-0.3,0.1c-0.1,0-0.2,0.1-0.4,0.1c-0.1,0-0.3,0.1-0.4,0.2
	c-0.1,0.1-0.3,0.1-0.4,0.2c-0.1,0.1-0.3,0.1-0.4,0.2c-0.3,0.1-0.7,0.3-1,0.4c-0.1,0.1-0.3,0.1-0.4,0.2c-2.1,1-4,2.1-5.9,3.4
	c-0.1,0.1-0.3,0.2-0.4,0.3c-0.1,0.1-0.3,0.2-0.4,0.3c-0.1,0.1-0.3,0.2-0.4,0.3c0,0-0.1,0-0.1,0.1c-0.7-2.3-1.1-4.7-1.1-7.1
	C164.2,22.4,165.5,18,167.9,14.1z M151.9,39.3c2.4,0,4.8,0.4,7,1.1c-0.8,1-1.5,2.1-2.2,3.2c-0.2,0.3-0.3,0.5-0.5,0.8
	c-0.1,0.1-0.2,0.3-0.2,0.4c-0.1,0.2-0.2,0.3-0.3,0.5c-0.1,0.2-0.2,0.3-0.3,0.5c-0.1,0.2-0.2,0.4-0.3,0.6c-0.1,0.2-0.2,0.4-0.3,0.6
	c-0.1,0.2-0.2,0.4-0.3,0.6c-0.1,0.1-0.1,0.3-0.2,0.4c-0.1,0.1-0.1,0.3-0.2,0.4c-0.1,0.1-0.1,0.3-0.2,0.4c-0.1,0.1-0.1,0.3-0.2,0.4
	c-0.1,0.1-0.1,0.3-0.2,0.4c0,0.1-0.1,0.2-0.1,0.3c-0.1,0.2-0.2,0.5-0.3,0.7c0,0.1-0.1,0.2-0.1,0.3c0,0.1-0.1,0.2-0.1,0.4
	c0,0,0,0,0,0c-0.1,0.3-0.2,0.5-0.3,0.8c-0.1,0.2-0.1,0.3-0.2,0.5c-0.1,0.2-0.1,0.4-0.2,0.6c0,0,0,0,0,0c0,0.1-0.1,0.3-0.1,0.4
	c-1,1.4-1.7,3-2.3,4.8c-1.7-1-3.2-2.2-4.6-3.6c-3.2-3.2-5.5-7.3-6.5-11.7C142.9,40.6,147.3,39.3,151.9,39.3z M135.1,80.8
	c-4.6-4.5-7.3-10.8-7.3-17.3c0-6.5,2.7-12.8,7.3-17.3c1.4,4.4,3.8,8.5,7.1,11.8c2.2,2.2,4.7,4,7.5,5.4l0,0l0.1,0.1
	c-2.8,1.4-5.3,3.2-7.6,5.4C138.9,72.3,136.4,76.3,135.1,80.8z M139,83.9c1-4.4,3.2-8.5,6.5-11.7c1.4-1.4,2.9-2.6,4.5-3.6
	c0.5,1.7,1.3,3.3,2.3,4.8c0.2,0.6,0.4,1.3,0.6,1.9c0,0.1,0.1,0.2,0.1,0.4c0,0,0,0,0,0.1c0,0.1,0.1,0.2,0.1,0.4
	c0,0.1,0.1,0.2,0.1,0.3c0,0.1,0.1,0.2,0.1,0.3c0,0.1,0.1,0.3,0.2,0.4c0.1,0.1,0.1,0.3,0.2,0.4c0.1,0.3,0.2,0.5,0.3,0.8
	c0.1,0.1,0.1,0.3,0.2,0.4c0.1,0.2,0.2,0.4,0.3,0.7c0,0,0,0,0,0c0.1,0.1,0.1,0.2,0.2,0.3c0,0.1,0.1,0.2,0.1,0.3
	c0.1,0.2,0.2,0.4,0.3,0.6c0,0,0,0,0,0c0.2,0.3,0.4,0.7,0.6,1c0.1,0.1,0.2,0.3,0.3,0.4c0.1,0.2,0.2,0.4,0.3,0.5
	c0.8,1.4,1.8,2.7,2.8,4c-2.3,0.7-4.7,1.1-7.1,1.1C147.3,87.6,142.9,86.3,139,83.9z M164.3,99.9c0-2.4,0.4-4.8,1.1-7
	c0.1,0,0.1,0.1,0.2,0.1c0.1,0.1,0.2,0.1,0.3,0.2c0.1,0.1,0.3,0.2,0.4,0.3c0.1,0.1,0.2,0.2,0.4,0.3c0.2,0.2,0.4,0.3,0.6,0.4
	c0.1,0.1,0.3,0.2,0.4,0.3c0.3,0.2,0.5,0.4,0.8,0.5c0.1,0.1,0.3,0.2,0.4,0.3c0.1,0.1,0.2,0.1,0.3,0.2c0,0,0,0,0,0
	c0.2,0.1,0.4,0.2,0.5,0.3c0.2,0.1,0.5,0.3,0.7,0.4c0.2,0.1,0.4,0.2,0.6,0.3c0.3,0.1,0.6,0.3,0.9,0.4c0.2,0.1,0.4,0.2,0.6,0.3
	c0.1,0.1,0.2,0.1,0.4,0.2c0,0,0,0,0,0c0.1,0,0.2,0.1,0.3,0.1c0.2,0.1,0.3,0.1,0.5,0.2c0.1,0,0.2,0.1,0.3,0.1
	c0.2,0.1,0.4,0.2,0.6,0.3c0.1,0.1,0.3,0.1,0.4,0.1c0.1,0.1,0.3,0.1,0.4,0.1c0.3,0.1,0.5,0.2,0.8,0.3c0.2,0.1,0.4,0.1,0.6,0.2
	c0.3,0.1,0.6,0.2,1,0.3c0,0,0,0,0,0c0.2,0.1,0.4,0.1,0.7,0.2c0,0,0.1,0,0.1,0c1.4,1,3,1.7,4.8,2.3c-1,1.7-2.2,3.2-3.6,4.6
	c-3.2,3.2-7.3,5.5-11.7,6.5C165.5,108.9,164.3,104.5,164.3,99.9z M188.4,124.1c-6.5,0-12.8-2.7-17.3-7.3c4.4-1.4,8.5-3.8,11.8-7.1
	c2.2-2.2,4-4.7,5.4-7.5l0,0l0.1-0.1l0.1,0.1l0,0c1.4,2.7,3.2,5.2,5.4,7.4c3.4,3.4,7.4,5.8,11.9,7.2
	C201.2,121.4,194.9,124.1,188.4,124.1z M208.8,112.8c-4.4-1-8.5-3.2-11.7-6.5c-1.4-1.4-2.6-2.9-3.6-4.5c1.7-0.5,3.3-1.3,4.8-2.3
	c0.1,0,0.1,0,0.2,0c0.2,0,0.4-0.1,0.5-0.2c0.2-0.1,0.4-0.1,0.6-0.2c0.2-0.1,0.4-0.1,0.6-0.2c0.1,0,0.3-0.1,0.4-0.1
	c0.1,0,0.3-0.1,0.4-0.1c0.1,0,0.2-0.1,0.3-0.1c0.1,0,0.2-0.1,0.3-0.1c0.1,0,0.3-0.1,0.4-0.2c0.1-0.1,0.3-0.1,0.4-0.2
	c0.1-0.1,0.3-0.1,0.4-0.2c0.1-0.1,0.3-0.1,0.4-0.2c0.1-0.1,0.3-0.1,0.4-0.2c0.1-0.1,0.3-0.1,0.4-0.2c0.2-0.1,0.4-0.2,0.6-0.3
	c0,0,0,0,0,0c0.2-0.1,0.3-0.2,0.5-0.2c2.3-1.1,4.4-2.5,6.4-4.1c0.7,2.3,1.1,4.7,1.1,7.1C212.5,104.5,211.2,108.9,208.8,112.8z
	 M224.8,87.5c-2.4,0-4.8-0.4-7-1.1c0.1-0.2,0.3-0.4,0.4-0.6c0,0,0,0,0,0c0.1-0.1,0.1-0.2,0.2-0.3c0.1-0.2,0.3-0.4,0.4-0.5
	c0,0,0,0,0,0c0.1-0.1,0.2-0.2,0.3-0.4c0.1-0.1,0.2-0.2,0.2-0.3c0.1-0.1,0.1-0.2,0.2-0.3c0.2-0.3,0.4-0.7,0.7-1
	c0.2-0.3,0.4-0.7,0.6-1c0.1-0.1,0.1-0.2,0.2-0.3c0.1-0.1,0.1-0.2,0.2-0.3c0.1-0.1,0.1-0.2,0.2-0.4c0.1-0.1,0.1-0.3,0.2-0.4
	c0.1-0.1,0.1-0.3,0.2-0.4c0.1-0.2,0.2-0.4,0.3-0.5c0.1-0.1,0.1-0.2,0.2-0.3c0-0.1,0.1-0.2,0.1-0.3c0-0.1,0.1-0.2,0.1-0.2
	c0,0,0-0.1,0-0.1c0.1-0.1,0.1-0.2,0.2-0.3c0.1-0.1,0.1-0.2,0.2-0.4c0,0,0-0.1,0-0.1c0-0.1,0.1-0.2,0.1-0.3c0,0,0,0,0,0
	c0.1-0.1,0.1-0.3,0.2-0.4c0.1-0.2,0.2-0.4,0.3-0.7c0.1-0.2,0.1-0.3,0.2-0.5c0.1-0.2,0.1-0.3,0.2-0.5c0.1-0.3,0.2-0.6,0.3-0.9
	c0,0,0,0,0,0c0.1-0.2,0.2-0.5,0.2-0.7c0,0,0,0,0,0c0.1-0.2,0.1-0.4,0.2-0.6c0,0,0,0,0,0c1-1.4,1.7-3,2.3-4.8c1.7,1,3.2,2.2,4.6,3.6
	c3.2,3.2,5.5,7.3,6.5,11.7C233.8,86.3,229.4,87.5,224.8,87.5z"/>
<g>
	<path class="st1" d="M13.6,55.7c2.2,0,4-0.1,5.5-0.4c1.5-0.3,2.6-0.7,3.5-1.2c0.9-0.6,1.5-1.3,1.9-2.2c0.4-0.9,0.6-1.9,0.6-3.1h2.1
		v16.5h-2.1c0-1.2-0.2-2.3-0.5-3.1c-0.3-0.9-0.9-1.6-1.8-2.2c-0.9-0.6-2-1-3.5-1.3c-1.5-0.3-3.3-0.5-5.6-0.5v13.7
		c0,1.3,0.2,2.4,0.5,3.3c0.3,0.9,0.9,1.6,1.7,2.1c0.8,0.5,1.8,0.9,3.1,1.2c1.3,0.2,2.9,0.3,4.8,0.3c2.1,0,4-0.2,5.4-0.5
		c1.5-0.3,2.7-0.8,3.8-1.5c1-0.7,1.8-1.7,2.4-2.9c0.6-1.2,1.1-2.7,1.5-4.5h2.3l-0.9,11.9H0.6V79C2,79,3.2,78.9,4,78.7
		c0.9-0.2,1.5-0.5,2-1c0.5-0.5,0.8-1.2,1-2.1c0.2-0.9,0.2-2,0.2-3.5V43.9c0-1.4-0.1-2.6-0.2-3.4c-0.1-0.9-0.4-1.6-0.8-2.1
		c-0.4-0.5-1-0.8-1.8-1c-0.8-0.2-1.9-0.3-3.1-0.4v-2.3h35l0.5,10.7h-2.1c-0.2-1.6-0.6-2.9-1.2-4c-0.5-1-1.3-1.8-2.2-2.5
		c-0.9-0.6-2.1-1-3.6-1.3c-1.5-0.2-3.2-0.4-5.3-0.4h-7.7c-0.7,0-1,0.3-1,1V55.7z"/>
	<path class="st1" d="M47,56.7c-0.5-1.2-0.9-2.2-1.3-2.9c-0.4-0.7-0.8-1.2-1.2-1.6c-0.4-0.4-0.9-0.6-1.5-0.7c-0.5-0.1-1.2-0.2-2-0.2
		v-2.1h16v2.1c-0.8,0-1.5,0.1-2,0.1c-0.5,0-0.9,0.1-1.2,0.3c-0.3,0.1-0.5,0.3-0.6,0.6C53,52.6,53,53,53,53.5c0,0.7,0.1,1.3,0.3,1.9
		c0.2,0.6,0.4,1.2,0.6,1.8l6.4,17.6h0.2l5.5-13c0.8-2,1.5-3.6,1.8-4.8c0.4-1.2,0.5-2.3,0.5-3.2c0-0.9-0.2-1.6-0.7-1.9
		c-0.5-0.3-1.5-0.5-3.1-0.5v-2.1h12v2.1c-0.6,0-1.2,0.2-1.8,0.5c-0.5,0.3-1,0.7-1.4,1.2c-0.3,0.4-0.7,1-1,1.8
		c-0.3,0.7-0.7,1.5-1,2.3c-0.3,0.8-0.7,1.6-0.9,2.4c-0.3,0.8-0.5,1.4-0.8,1.9L60.7,82h-3.5L47,56.7z"/>
	<path class="st1" d="M98.1,60.8v-2.5c0-4.9-2.1-7.4-6.3-7.4c-0.7,0-1.3,0.1-1.8,0.2c-0.5,0.1-0.9,0.3-1.2,0.6
		c-0.3,0.3-0.6,0.7-0.9,1.2c-0.3,0.5-0.5,1.2-0.8,1.9c-0.4,1.2-0.9,1.9-1.3,2.3c-0.4,0.4-1,0.6-1.8,0.6c-2,0-3-1-3-3
		c0-1.9,1-3.4,3.1-4.5c2.1-1.1,5-1.6,8.8-1.6c4,0,6.9,0.7,8.6,2.1c1.7,1.4,2.5,3.9,2.5,7.3v13.6c0,4.6,0.9,6.9,2.7,6.9
		c0.6,0,1.1-0.1,1.6-0.2c0.5-0.1,1-0.5,1.3-1.1l0.8,1.5c-0.5,0.9-1.4,1.7-2.7,2.3c-1.3,0.6-2.6,0.9-4.1,0.9c-1.8,0-3.1-0.6-4-1.7
		c-0.9-1.1-1.3-2.7-1.3-4.8h-0.3c-1,2-2.5,3.5-4.4,4.7c-1.9,1.2-3.9,1.7-6.2,1.7c-2.5,0-4.5-0.6-6-1.9c-1.5-1.3-2.2-3-2.2-5.2
		c0-1,0.2-1.9,0.5-2.8c0.3-0.9,0.9-1.7,1.7-2.5c0.8-0.8,1.8-1.6,3-2.4c1.3-0.8,2.8-1.6,4.6-2.4L98.1,60.8z M98.1,63.4
		c-2.3,0.9-4.2,1.8-5.8,2.6c-1.6,0.8-2.9,1.7-3.8,2.5c-1,0.8-1.7,1.7-2.1,2.5c-0.4,0.8-0.6,1.7-0.6,2.6c0,1.3,0.4,2.4,1.3,3.3
		c0.9,0.8,2.1,1.3,3.5,1.3c1,0,2-0.3,2.9-0.8c0.9-0.5,1.7-1.2,2.4-2.1c0.7-0.9,1.2-2,1.6-3.2c0.4-1.2,0.6-2.5,0.6-3.9V63.4z"/>
	<path class="st1" d="M278.8,43.5c0-1.2-0.1-2.1-0.2-2.8c-0.1-0.7-0.4-1.3-0.7-1.7c-0.4-0.4-0.9-0.7-1.5-0.9
		c-0.7-0.2-1.5-0.3-2.6-0.3v-1.9h15.3v1.9c-1.1,0-1.9,0.1-2.6,0.3c-0.7,0.2-1.2,0.5-1.5,0.9c-0.4,0.4-0.6,1-0.7,1.8
		c-0.1,0.8-0.2,1.8-0.2,3.1v30.9c0,4.2-0.9,7.5-2.7,9.7c-1.8,2.2-4.4,3.3-7.8,3.3c-2.3,0-4.2-0.4-5.6-1.3c-1.4-0.9-2.1-2.1-2.1-3.5
		c0-0.9,0.2-1.5,0.7-2c0.5-0.5,1.1-0.7,1.9-0.7c0.6,0,1.2,0.2,1.5,0.5c0.4,0.3,0.8,0.9,1.3,1.9c0.6,1.1,1.1,1.8,1.5,2.2
		c0.4,0.4,1,0.6,1.6,0.6c1.4,0,2.4-0.7,3.2-2.2c0.7-1.5,1.1-3.6,1.1-6.3V43.5z"/>
	<path class="st1" d="M306.4,47.4c1.9,0,3.7,0.3,5.4,1c1.7,0.7,3.2,1.6,4.5,2.8c1.3,1.2,2.3,2.6,3.1,4.3c0.8,1.7,1.1,3.5,1.1,5.5
		c0,2-0.4,3.9-1.1,5.6c-0.8,1.7-1.8,3.2-3.1,4.4c-1.3,1.2-2.8,2.2-4.5,2.9c-1.7,0.7-3.5,1.1-5.4,1.1c-1.9,0-3.7-0.3-5.4-1
		c-1.7-0.7-3.2-1.7-4.5-2.9c-1.3-1.2-2.3-2.7-3-4.5c-0.7-1.7-1.1-3.6-1.1-5.7c0-2,0.4-3.8,1.1-5.5c0.7-1.7,1.7-3.1,3-4.3
		c1.3-1.2,2.8-2.1,4.5-2.8C302.7,47.8,304.5,47.4,306.4,47.4z M306.4,49.8c-1.2,0-2.4,0.3-3.4,0.8c-1,0.5-1.9,1.3-2.6,2.3
		c-0.7,1-1.3,2.2-1.7,3.6c-0.4,1.4-0.6,2.9-0.6,4.6c0,1.7,0.2,3.3,0.6,4.7c0.4,1.4,0.9,2.6,1.7,3.6c0.7,1,1.6,1.8,2.6,2.3
		c1,0.5,2.1,0.8,3.4,0.8c1.3,0,2.4-0.3,3.5-0.8c1-0.5,1.9-1.3,2.7-2.3c0.7-1,1.3-2.2,1.7-3.6c0.4-1.4,0.6-3,0.6-4.7
		c0-1.7-0.2-3.2-0.6-4.6c-0.4-1.4-1-2.6-1.7-3.5c-0.7-1-1.6-1.8-2.7-2.3C308.8,50.1,307.6,49.8,306.4,49.8z"/>
	<path class="st1" d="M333.8,66.7c0,1.4,0,2.5,0.1,3.2c0.1,0.8,0.2,1.4,0.5,1.8c0.3,0.4,0.7,0.7,1.3,0.8c0.6,0.1,1.3,0.2,2.3,0.3
		v1.7h-13.2v-1.7c0.9-0.1,1.7-0.2,2.2-0.3c0.6-0.1,1-0.4,1.3-0.8c0.3-0.4,0.5-1,0.6-1.7c0.1-0.7,0.1-1.7,0.1-3v-6.7
		c0-4-0.1-6.4-0.3-7.3c-0.1-0.4-0.2-0.8-0.4-1.1c-0.2-0.3-0.4-0.5-0.7-0.7c-0.3-0.2-0.7-0.3-1.2-0.3c-0.5-0.1-1.1-0.1-1.8-0.1v-1.6
		l8.1-1.9l0.6,5h0.2c1.3-1.6,2.8-2.8,4.5-3.7c1.7-0.9,3.6-1.3,5.6-1.3c1.5,0,3,0.3,4.2,0.8c1.3,0.5,2.2,1.2,2.9,2.1
		c0.6,0.8,1,1.8,1.2,3c0.2,1.2,0.4,2.9,0.4,5.1v8.4c0,1.4,0,2.5,0.1,3.2c0.1,0.8,0.3,1.4,0.5,1.8c0.3,0.4,0.7,0.7,1.2,0.8
		c0.6,0.1,1.3,0.2,2.2,0.3v1.7h-13v-1.7c0.9,0,1.7-0.1,2.2-0.3c0.6-0.2,1-0.4,1.3-0.8c0.3-0.4,0.5-1,0.6-1.7c0.1-0.8,0.1-1.8,0.1-3
		v-6.6c0-1.9-0.1-3.5-0.3-4.8c-0.2-1.3-0.5-2.4-1-3.2c-0.5-0.8-1-1.4-1.8-1.7c-0.7-0.4-1.6-0.5-2.7-0.5c-1.5,0-2.9,0.4-4.2,1.2
		c-1.3,0.8-2.2,1.9-2.9,3.2c-0.2,0.3-0.3,0.7-0.4,1c-0.1,0.3-0.2,0.7-0.3,1.1c-0.1,0.4-0.1,0.9-0.2,1.4c0,0.5-0.1,1.2-0.1,2V66.7z"
		/>
	<path class="st1" d="M375.2,57.5v-2.1c0-4.1-1.7-6.1-5.2-6.1c-0.6,0-1.1,0.1-1.5,0.2c-0.4,0.1-0.7,0.3-1,0.5
		c-0.3,0.2-0.5,0.6-0.7,1c-0.2,0.4-0.4,1-0.6,1.6c-0.4,1-0.7,1.6-1.1,1.9c-0.4,0.3-0.9,0.5-1.5,0.5c-1.7,0-2.5-0.8-2.5-2.5
		c0-1.6,0.9-2.9,2.6-3.8c1.7-0.9,4.1-1.3,7.3-1.3c3.4,0,5.7,0.6,7.1,1.8c1.4,1.2,2.1,3.2,2.1,6.1v11.3c0,3.8,0.8,5.7,2.3,5.7
		c0.5,0,0.9-0.1,1.4-0.2c0.4-0.1,0.8-0.4,1.1-0.9l0.7,1.2c-0.4,0.8-1.1,1.4-2.2,1.9c-1.1,0.5-2.2,0.8-3.4,0.8
		c-1.5,0-2.6-0.5-3.3-1.4c-0.7-0.9-1.1-2.3-1.1-4h-0.3c-0.9,1.6-2.1,2.9-3.6,3.9c-1.5,1-3.3,1.4-5.1,1.4c-2.1,0-3.8-0.5-5-1.6
		c-1.2-1.1-1.8-2.5-1.8-4.3c0-0.8,0.1-1.6,0.4-2.3c0.3-0.7,0.7-1.4,1.4-2.1c0.6-0.7,1.5-1.3,2.5-2c1-0.7,2.3-1.3,3.8-2L375.2,57.5z
		 M375.2,59.7c-1.9,0.7-3.5,1.5-4.9,2.2c-1.3,0.7-2.4,1.4-3.2,2.1c-0.8,0.7-1.4,1.4-1.7,2.1c-0.4,0.7-0.5,1.4-0.5,2.2
		c0,1.1,0.4,2,1.1,2.7c0.7,0.7,1.7,1.1,2.9,1.1c0.9,0,1.7-0.2,2.4-0.7c0.8-0.4,1.4-1,2-1.8c0.6-0.8,1-1.6,1.4-2.7
		c0.3-1,0.5-2.1,0.5-3.2V59.7z"/>
	<path class="st1" d="M389.8,74.6h-1.1v-8.7h1.3c1.3,4.7,3.7,7.1,7.1,7.1c1.3,0,2.4-0.3,3.2-1c0.8-0.7,1.2-1.7,1.2-3
		c0-0.5-0.1-0.9-0.2-1.3c-0.2-0.4-0.4-0.7-0.9-1.1c-0.4-0.4-1-0.8-1.8-1.3s-1.8-1.1-3-1.9c-1.1-0.7-2.1-1.4-3-2
		c-0.8-0.6-1.5-1.2-2.1-1.8c-0.6-0.6-1-1.3-1.3-2c-0.3-0.7-0.4-1.5-0.4-2.5c0-1.1,0.2-2.2,0.6-3.1c0.4-1,0.9-1.8,1.6-2.4
		c0.7-0.7,1.5-1.2,2.4-1.6c0.9-0.4,1.9-0.6,3-0.6c0.9,0,1.8,0.1,2.8,0.4c1,0.3,1.8,0.7,2.6,1.1l1-1.1h1v7.2h-1.3
		c-0.7-2-1.5-3.5-2.4-4.4c-0.9-0.9-1.9-1.3-3.2-1.3c-1.1,0-2.1,0.3-2.7,0.9c-0.7,0.6-1,1.4-1,2.5c0,0.6,0.1,1.1,0.3,1.5
		c0.2,0.4,0.5,0.8,0.9,1.2c0.4,0.4,0.9,0.8,1.5,1.2c0.6,0.4,1.4,0.9,2.2,1.4c1.4,0.9,2.7,1.7,3.7,2.4c1,0.7,1.9,1.4,2.5,2.1
		c0.6,0.7,1.1,1.4,1.4,2.1c0.3,0.7,0.5,1.6,0.5,2.5c0,2.4-0.8,4.3-2.3,5.6c-1.5,1.4-3.6,2-6.1,2c-2.6,0-4.9-0.8-6.7-2.3L389.8,74.6z
		"/>
</g>
</svg>
